PathFileType	4	(X/Y/Z)	jw_ngait_og1_rotated.trc
DataRate	CameraRate	NumFrames	NumMarkers	Units	OrigDataRate	OrigDataStartFrame	OrigNumFrames
120.000000	120.000000	5	56	mm	120.000000	164	327
Frame#	Time	Sternum			Neck			RShoulder			LShoulder			Xiphoid			Thoracic			RAsis			LAsis			RPsis			LPsis			Lumbar			RElbow			RWrist			RRadius			RUlna			LElbow			LWrist			LUlna			LRadius			LThighSuperior			LThighInferior			LThighLateral			LPatella			LShankSuperior			LShankInferior			LShankLateral			RThighSuperior			RThighInferior			RThighLateral			RPatella			RShankSuperior			RShankInferior			RShankLateral			RHeel			RToe			RMidfootMedial			RMidfootLateral			RHindfoot			RMidfootSuperior			RToeMedial			RToeLateral			LHeel			LToe			LMidfootMedial			LMidfootLateral			LHindfoot			LMidfootSuperior			LToeMedial			LToeLateral			LShoulderCenter			Oglobal			RShoulderCenter			Sacral			Xglobal			Yglobal			Zglobal			
		X1	Y1	Z1	X2	Y2	Z2	X3	Y3	Z3	X4	Y4	Z4	X5	Y5	Z5	X6	Y6	Z6	X7	Y7	Z7	X8	Y8	Z8	X9	Y9	Z9	X10	Y10	Z10	X11	Y11	Z11	X12	Y12	Z12	X13	Y13	Z13	X14	Y14	Z14	X15	Y15	Z15	X16	Y16	Z16	X17	Y17	Z17	X18	Y18	Z18	X19	Y19	Z19	X20	Y20	Z20	X21	Y21	Z21	X22	Y22	Z22	X23	Y23	Z23	X24	Y24	Z24	X25	Y25	Z25	X26	Y26	Z26	X27	Y27	Z27	X28	Y28	Z28	X29	Y29	Z29	X30	Y30	Z30	X31	Y31	Z31	X32	Y32	Z32	X33	Y33	Z33	X34	Y34	Z34	X35	Y35	Z35	X36	Y36	Z36	X37	Y37	Z37	X38	Y38	Z38	X39	Y39	Z39	X40	Y40	Z40	X41	Y41	Z41	X42	Y42	Z42	X43	Y43	Z43	X44	Y44	Z44	X45	Y45	Z45	X46	Y46	Z46	X47	Y47	Z47	X48	Y48	Z48	X49	Y49	Z49	X50	Y50	Z50	X51	Y51	Z51	X52	Y52	Z52	X53	Y53	Z53	X54	Y54	Z54	X55	Y55	Z55	X56	Y56	Z56	

164.00000	2.31667	-45.57341	1306.56372	-123.55899	86.00595	1424.06982	-128.06532	20.47786	1372.70239	-305.54514	43.01124	1362.82996	58.63363	-41.06127	1190.24158	-120.44292	178.83180	1233.91162	-135.42757	-38.51946	967.29358	-264.38348	0.67636	948.91589	5.01590	188.50890	946.67053	-170.12035	196.65057	943.87463	-111.00821	187.39490	1015.27289	-149.12000	94.48066	1051.07751	-413.03369	-10.98275	805.75854	-408.83978	-27.02188	813.78003	-373.44952	36.74841	799.97516	-405.14142	127.18294	1038.94812	107.92271	100.58406	765.80835	105.70287	150.26549	772.70178	100.25896	81.92326	788.26184	71.78172	5.81430	785.66736	49.11073	-119.16078	569.80731	8.69830	-120.90123	693.23285	-4.35811	-194.46303	522.28925	-43.11129	-152.28323	428.03830	0.68839	-191.94521	173.39886	-29.90620	-208.28838	306.55157	-69.80257	48.03876	775.16644	-307.12164	87.51672	534.27612	-272.64645	16.17125	616.46790	-247.63420	91.15195	443.71793	-229.76762	252.37689	407.52231	-281.81741	375.87903	209.23816	-229.21202	278.03735	267.10184	-196.85989	514.85962	156.72530	-173.72887	267.52383	29.27953	-243.33655	329.46054	34.80375	-174.11522	366.91882	49.62362	-281.71979	442.55154	74.10777	-261.70673	343.27811	119.47043	-219.06740	302.16074	30.44123	-192.24156	316.12411	35.63770	-279.80530	-123.60934	44.36261	-68.15036	-417.79230	83.92034	-41.20435	-335.94904	53.87473	-107.92063	-318.81561	49.62876	15.46378	-221.38402	23.19494	-1.62126	-283.63748	123.38910	-49.92522	-380.61670	70.83420	-83.46347	-366.94913	62.92968	4.59457	67.63288	1320.14978	45.85304	0.00000	0.00000	0.00000	44.09326	1330.38672	-305.22220	192.57974	945.27258	-140.56427	200.00000	0.00000	0.00000	0.00000	0.00000	-200.00000	0.00000	200.00000	0.00000
165.00000	2.32500	-56.06017	1307.74805	-121.36018	75.81300	1424.67542	-126.94961	8.69544	1373.60303	-304.14267	34.01309	1363.01819	59.74806	-51.99519	1191.21265	-118.39828	168.18533	1234.37366	-135.84416	-51.03463	967.86835	-262.01801	-9.79630	950.32812	6.89508	176.61540	946.50372	-170.14224	185.08168	943.74701	-111.05589	176.03833	1015.08679	-148.88164	82.89852	1051.99646	-410.66071	-21.38951	806.03595	-406.82602	-37.94546	814.08960	-371.65836	26.56178	800.63416	-403.07904	115.53219	1038.52454	109.57386	86.21920	765.82306	108.09864	136.19096	772.36847	102.68406	67.84892	787.89246	73.62138	-5.04999	786.64795	50.08265	-130.89772	571.26971	9.45961	-132.23743	694.49023	-0.56272	-205.39667	522.23529	-42.07025	-162.16635	428.32001	1.64809	-195.39081	173.14786	-29.81381	-215.31172	306.14365	-69.10638	32.86002	774.61456	-305.88037	68.31628	533.12463	-273.26755	-1.45646	616.44360	-247.96306	71.48999	440.60162	-231.63873	235.15143	408.86639	-282.50461	364.46292	214.72200	-229.38820	264.64609	269.43808	-197.41620	504.33160	168.91663	-172.03513	266.83478	27.94239	-243.62257	326.09653	36.75781	-174.06766	363.97269	53.23102	-281.28482	438.55380	81.73257	-260.77155	335.52988	121.84512	-219.28938	301.31610	30.44878	-192.57832	315.11749	36.09233	-279.71799	-124.29910	45.14980	-68.32993	-419.67563	78.35362	-41.12442	-336.94757	49.98512	-107.28568	-319.24271	46.64712	16.04596	-221.82339	22.85979	-1.60860	-285.89111	120.84586	-49.80285	-382.22162	66.22180	-83.50733	-368.35742	58.83237	4.67867	58.51015	1320.60754	47.18939	0.00000	0.00000	0.00000	32.28360	1331.54053	-303.67435	180.84854	945.12537	-140.59906	200.00000	0.00000	0.00000	0.00000	0.00000	-200.00000	0.00000	200.00000	0.00000
166.00000	2.33333	-66.60220	1308.94629	-119.55054	65.64230	1425.62280	-125.95208	-3.19706	1374.75476	-302.64294	25.29117	1363.74512	60.90609	-62.69616	1192.56335	-116.40453	157.50533	1234.89832	-136.10571	-63.24135	968.74933	-259.93109	-20.43493	952.16089	8.98813	164.88989	946.27771	-170.15877	173.67250	944.05225	-111.12951	164.82066	1015.07355	-148.30573	71.28281	1052.89148	-408.56277	-31.93936	806.36456	-404.76981	-48.74458	814.41785	-369.50031	15.90429	801.20062	-400.78610	103.84515	1038.61987	111.28933	71.92999	766.01929	110.29365	121.87834	772.24182	105.05686	53.57562	788.29065	75.64595	-16.15019	787.98779	51.42608	-142.85161	572.96997	10.18145	-143.59006	695.97534	3.02836	-215.64273	521.86041	-41.04520	-171.00232	428.72876	2.55937	-198.98042	172.89693	-29.69543	-221.70386	305.65799	-68.40659	18.27205	774.49658	-304.94391	48.35291	531.86090	-273.45981	-19.54832	616.70007	-247.93271	50.60199	438.08618	-232.15750	216.57364	410.24106	-282.67139	351.87476	220.66168	-229.57501	250.26338	272.02338	-198.13644	492.19904	181.73868	-170.59091	265.93976	26.73514	-244.09781	322.32388	39.04654	-174.97379	361.31976	56.93639	-281.56067	433.71942	90.21655	-259.66318	327.80707	124.28549	-220.68497	300.35196	30.87857	-192.96570	313.81873	36.75681	-279.49075	-124.92866	45.84825	-68.19357	-421.22714	73.70475	-41.26878	-337.52789	46.86364	-107.70092	-320.08533	44.60219	15.69251	-221.99072	22.43843	-1.76831	-288.47485	119.22956	-50.47299	-383.49423	62.27544	-83.51996	-369.43314	55.41605	4.49794	49.48180	1321.34192	47.99507	0.00000	0.00000	0.00000	20.19304	1332.69202	-302.61307	169.28119	945.16498	-140.64413	200.00000	0.00000	0.00000	0.00000	0.00000	-200.00000	0.00000	200.00000	0.00000
167.00000	2.34167	-76.79177	1310.43518	-117.59967	55.57098	1426.60327	-125.26300	-15.03358	1375.76233	-301.12125	16.49396	1364.59460	61.86068	-73.37939	1193.99585	-114.58473	147.00847	1235.76392	-136.23709	-74.52119	969.43677	-257.49344	-30.85535	954.10773	10.61602	153.17574	946.37286	-170.12109	162.13000	944.26086	-111.21831	154.18182	1015.09833	-147.38731	59.23235	1054.03479	-406.58765	-42.52745	806.84265	-402.44800	-59.30288	814.88171	-367.51859	5.63201	802.01678	-398.58307	92.15223	1038.93970	112.77338	57.32628	766.67102	112.64687	107.13140	772.21790	107.46912	39.26818	789.14459	77.94305	-26.91976	789.39825	53.02368	-153.79086	574.33691	9.95017	-154.51634	697.31610	6.49249	-224.86497	521.57520	-40.15871	-179.13358	428.39780	3.08660	-202.15135	172.64755	-29.58801	-227.34540	305.00818	-67.87569	4.02954	774.51959	-303.87943	27.67374	530.68152	-273.28412	-37.92838	617.12128	-247.87375	29.59635	435.81418	-232.04071	197.11421	412.03613	-282.74203	337.98447	226.92976	-229.80658	234.42351	274.83267	-198.42406	478.79755	195.59508	-169.69496	264.50201	25.17499	-244.08051	318.86505	41.87314	-175.07866	357.81967	61.72681	-281.33243	427.42438	99.82487	-258.87503	318.77429	126.85237	-221.40039	298.66089	31.30928	-193.12392	311.65274	37.96214	-279.20255	-125.40982	46.51176	-68.36091	-422.52960	69.63239	-41.34074	-338.07062	43.87819	-107.46007	-320.36526	42.59610	15.91000	-222.31506	22.26389	-1.74322	-290.41855	117.49120	-50.69989	-384.39511	58.57547	-83.48792	-370.34738	52.43404	4.61217	40.75202	1322.45361	48.95271	0.00000	0.00000	0.00000	8.50850	1333.97070	-301.39062	157.65286	945.31689	-140.66971	200.00000	0.00000	0.00000	0.00000	0.00000	-200.00000	0.00000	200.00000	0.00000
168.00000	2.35000	-87.13697	1312.02979	-115.98443	45.45611	1427.88391	-124.45110	-26.78903	1377.11230	-299.75601	7.89025	1365.74719	62.81524	-83.47865	1195.42859	-112.76022	136.35765	1236.62366	-136.52995	-86.09167	970.81134	-255.43695	-41.02839	956.01556	12.39404	141.86253	946.64734	-170.16504	150.79065	944.95984	-111.21252	143.46362	1015.52765	-146.77516	46.97496	1055.33569	-404.62555	-53.04862	807.38019	-400.45212	-69.76063	815.15924	-365.07837	-5.00680	802.89136	-396.47946	80.60545	1039.59924	114.22128	42.44247	767.83997	115.16701	92.24979	772.73254	110.00727	24.68426	790.31873	80.47038	-37.31342	790.88330	54.57517	-165.16907	575.83746	10.36739	-164.39415	698.35638	9.91765	-231.11130	519.08929	-39.79183	-186.40840	428.12366	3.50684	-205.18303	172.44151	-29.56934	-232.42480	304.28406	-67.62151	-10.49877	774.40784	-302.72733	6.58456	529.56110	-272.80423	-56.64391	617.86786	-247.41603	7.42053	434.43646	-231.37582	177.01566	414.15137	-282.62582	322.46799	232.74268	-229.60727	217.54587	277.49521	-198.93903	463.16122	209.80530	-168.98126	262.67612	23.51004	-244.15059	314.69724	44.99673	-174.84642	352.68774	67.39885	-280.94241	419.35541	110.48331	-258.17899	308.70947	129.64130	-221.37128	296.53339	31.97181	-193.26567	309.20389	40.41782	-279.27631	-125.91045	47.02415	-68.47195	-423.57227	65.57401	-41.31239	-338.57321	40.90121	-107.16763	-320.63739	40.63863	16.17553	-222.39566	21.98648	-1.74499	-291.95795	115.57848	-50.93964	-385.43570	55.34442	-83.31987	-371.13373	49.53503	4.65855	31.89373	1323.71619	49.53234	0.00000	0.00000	0.00000	-3.40070	1335.43140	-300.51022	146.32660	945.80359	-140.68878	200.00000	0.00000	0.00000	0.00000	0.00000	-200.00000	0.00000	200.00000	0.00000
